<svg width="200" height="60" viewBox="0 0 200 60" fill="none" xmlns="http://www.w3.org/2000/svg">
<g clip-path="url(#clip0_1_276)">
<path fill-rule="evenodd" clip-rule="evenodd" d="M52.3866 31.8081L52.3041 51.6774V59.1895H43.7933C31.9769 59.1895 31.9769 53.8587 31.9769 49.8202V31.9702C31.9769 26.5587 29.8289 23.7309 25.4497 23.7309C23.9621 23.7309 22.2268 23.9736 20.4091 25.7505V59.1891H-0.000610352V8.86908L20.4091 0.145508V24.5384C24.0447 21.1459 30.4076 18.2381 38.0091 18.2381C47.3459 18.2381 52.3867 22.6 52.3867 31.8074" fill="#FF0000"/>
<path fill-rule="evenodd" clip-rule="evenodd" d="M112.268 32.0153L112.184 51.8038V59.286H103.608C91.7019 59.286 91.7019 53.9768 91.7019 49.9546V32.1767C91.7019 26.7871 89.5369 23.971 85.1241 23.971C83.6251 23.971 81.8765 24.2126 80.0453 25.9824V59.286H59.4795V26.5453L80.0453 17.8574V24.7756C83.7089 21.3969 90.1196 18.5009 97.7799 18.5009C107.189 18.5009 112.268 22.8451 112.268 32.0151" fill="#FF0000"/>
<path fill-rule="evenodd" clip-rule="evenodd" d="M150.312 32.943C157.703 35.2713 162.826 38.1618 162.826 46.0301C162.826 56.548 152.915 60.0001 139.897 60.0001C132.843 60.0001 124.947 59.0365 118.061 57.1905L117.473 44.3441H117.976C124.612 50.526 133.263 59.4384 140.402 59.4384C144.013 59.4384 146.197 57.5913 146.197 54.3794C146.197 51.0879 144.181 49.8836 141.158 49.0007C139.31 48.4381 133.598 46.7526 129.987 45.5482C124.612 43.7818 117.641 41.2931 117.641 32.5418C117.641 22.3446 127.215 18.5718 140.401 18.5718C146.533 18.5718 154.679 19.4547 160.39 20.8194L160.978 33.5858H160.475C154.427 27.4836 146.533 19.2944 140.15 19.2944C136.202 19.2944 134.27 21.3816 134.27 24.2721C134.27 27.5641 136.538 28.6882 139.058 29.4908C140.653 29.9727 139.226 29.4908 150.312 32.9433" fill="#FF0000"/>
<path fill-rule="evenodd" clip-rule="evenodd" d="M200 51.7261V52.1279C198.339 56.0639 191.694 60.0001 183.473 60.0001C173.34 60.0001 168.773 55.9839 168.773 47.5494V9.39078L189.286 0.714355V19.1915H198.92V23.2066H189.286V47.0666C189.286 51.5654 192.442 52.8511 195.099 52.8511C197.01 52.8511 198.505 52.5296 200 51.7259" fill="#FF0000"/>
</g>
<defs>
<clipPath id="clip0_1_276">
<rect width="200" height="60" fill="white"/>
</clipPath>
</defs>
</svg>
